<?xml version="1.0" encoding="UTF-8" standalone="no"?>
<!-- Created with Inkscape (http://www.inkscape.org/) -->

<svg
   width="79.375008mm"
   height="82.922806mm"
   viewBox="0 0 79.375008 82.922806"
   version="1.1"
   id="svg1"
   xml:space="preserve"
   inkscape:version="1.3 (0e150ed6c4, 2023-07-21)"
   sodipodi:docname="astronomisk.svg"
   xmlns:inkscape="http://www.inkscape.org/namespaces/inkscape"
   xmlns:sodipodi="http://sodipodi.sourceforge.net/DTD/sodipodi-0.dtd"
   xmlns="http://www.w3.org/2000/svg"
   xmlns:svg="http://www.w3.org/2000/svg"><sodipodi:namedview
     id="namedview1"
     pagecolor="#ffffff"
     bordercolor="#000000"
     borderopacity="0.25"
     inkscape:showpageshadow="2"
     inkscape:pageopacity="0.0"
     inkscape:pagecheckerboard="0"
     inkscape:deskcolor="#d1d1d1"
     inkscape:document-units="mm"
     inkscape:zoom="1.2249228"
     inkscape:cx="397.16787"
     inkscape:cy="561.66803"
     inkscape:window-width="2736"
     inkscape:window-height="1714"
     inkscape:window-x="-12"
     inkscape:window-y="-12"
     inkscape:window-maximized="1"
     inkscape:current-layer="layer1" /><defs
     id="defs1" /><g
     inkscape:label="Layer 1"
     inkscape:groupmode="layer"
     id="layer1"><path
       style="fill:#000000;stroke-width:1.30593"
       d="m 24.870475,82.524957 c -0.235332,-0.235327 -0.427873,-0.630472 -0.427873,-0.878077 0,-0.247613 3.109738,-5.42487 6.910528,-11.505008 l 6.910529,-11.054797 -0.0022,-3.542677 -0.0023,-3.54267 -7.858517,-2.13006 c -7.31175,-1.98186 -7.902074,-2.090985 -8.484534,-1.568377 -0.58121,0.521475 -0.828526,0.490245 -3.455264,-0.436305 -5.432693,-1.916333 -5.191451,-1.74891 -4.959397,-3.44193 0.17651,-1.287773 0.08657,-1.593218 -0.680062,-2.309348 -2.484138,-2.320544 -2.646132,-6.238417 -0.409275,-9.898417 0.841049,-1.37616 3.054354,-2.698942 5.054978,-3.02112 1.118634,-0.18015 1.565951,-0.439807 1.794858,-1.041877 0.577229,-1.518217 1.263881,-1.56087 4.759282,-0.295583 4.147448,1.501305 4.496067,1.697363 4.62986,2.60364 0.0891,0.603533 1.315591,1.301445 6.329988,3.60195 7.772987,3.566093 8.038133,3.715913 8.17799,4.620765 0.09117,0.58983 1.423745,1.360043 6.506883,3.760897 5.083114,2.40084 6.484555,3.210855 6.843001,3.955155 0.24792,0.514808 0.66345,0.936008 0.923401,0.936008 0.62421,0 1.481817,-2.503275 0.921583,-2.690025 -0.217442,-0.07245 -0.39535,-0.4743 -0.39535,-0.892943 0,-1.137472 1.490732,-4.766654 2.121354,-5.164454 0.642465,-0.405255 7.453305,1.910835 8.129947,2.764657 0.31329,0.395317 0.261975,0.92178 -0.228915,2.348572 -0.884287,2.570228 -1.31247,3.278393 -2.182672,3.609908 -0.538958,0.205312 -1.001715,0.996877 -1.609658,2.753362 -1.538767,4.445843 -4.002202,5.75079 -7.924491,4.197833 -1.299629,-0.51456 -1.977066,-0.629415 -2.228645,-0.377828 -0.601319,0.601313 -1.89419,0.418605 -7.238987,-1.023022 -2.813446,-0.758865 -5.262364,-1.379738 -5.442042,-1.379738 -0.185438,0 -0.326687,1.643783 -0.326687,3.80181 v 3.801817 l 6.930048,11.086027 c 3.811526,6.097305 6.882393,11.327865 6.824147,11.623448 -0.140199,0.71151 -1.093872,1.28868 -1.727528,1.04553 -0.278418,-0.10683 -3.059446,-4.287233 -6.180059,-9.28974 l -5.673844,-9.095467 -0.172764,8.938312 c -0.155089,8.023927 -0.23462,8.977297 -0.777434,9.319357 -0.440685,0.277688 -0.768658,0.277688 -1.209343,0 -0.542795,-0.342052 -0.622349,-1.29519 -0.777434,-9.314377 L 38.090813,64.46681 32.3796,73.610195 c -5.7346,9.180832 -6.424319,9.999652 -7.509208,8.914762 z m 27.860056,-33.141741 0.709255,-2.100218 -5.373958,-2.564385 c -2.955676,-1.410412 -5.501517,-2.564385 -5.657422,-2.564385 -0.256785,0 -2.417115,5.227485 -2.417115,5.848845 0,0.143768 2.682149,0.972285 5.960332,1.84116 3.278182,0.868875 5.984928,1.59315 6.014992,1.609493 0.03006,0.01635 0.373825,-0.915383 0.763916,-2.07051 z M 20.592065,44.659303 c 0.929084,-2.325532 4.873406,-13.343489 4.798076,-13.402822 -0.261518,-0.205942 -3.77488,-1.24584 -3.866786,-1.1445 -0.408726,0.450675 -5.058675,13.85424 -4.871301,14.041612 0.218702,0.2187 2.858999,1.34022 3.343166,1.42008 0.119479,0.01973 0.388054,-0.39177 0.596845,-0.91437 z M 10.602652,79.660955 C 8.2133382,78.78071 6.6288211,77.7872 4.9955259,76.145232 -1.6558871,69.458472 0.33193684,58.2257 8.8939129,54.116271 c 1.9547211,-0.938205 2.6715211,-1.089848 5.5284221,-1.169648 2.760711,-0.07718 3.584589,0.033 5.182896,0.692805 2.521551,1.040903 2.680203,1.881255 0.62472,3.30906 -3.792051,2.634082 -5.278992,5.328367 -5.278992,9.56535 0,4.236989 1.486941,6.931274 5.278992,9.565357 2.058242,1.429725 1.898314,2.27277 -0.62472,3.293137 -2.213675,0.895268 -6.944235,1.046925 -9.002579,0.288623 z M 47.247346,29.668251 c 0,-0.419302 -0.257328,-1.046722 -0.571842,-1.394257 -0.537117,-0.593505 -0.526803,-0.631875 0.169835,-0.631875 0.407923,0 0.929677,-0.301042 1.159453,-0.66897 0.413178,-0.661597 0.422934,-0.661597 0.886337,0 0.257709,0.367928 0.794817,0.66897 1.193574,0.66897 0.680494,0 0.689899,0.03877 0.15317,0.631875 -0.314513,0.347535 -0.571842,0.988522 -0.571842,1.424415 0,0.64962 -0.08948,0.718267 -0.496202,0.38073 -0.368318,-0.305678 -0.679999,-0.313448 -1.209344,-0.03015 -0.620346,0.331995 -0.713139,0.282465 -0.713139,-0.38073 z m 5.376963,-0.92244 c -0.325729,-1.026277 0.113407,-1.731472 1.231057,-1.976962 1.29188,-0.28374 2.099179,0.348 1.961229,1.534747 -0.09079,0.780983 -0.284938,0.906578 -1.543201,0.998213 -1.167843,0.08502 -1.478912,-0.01987 -1.649085,-0.555998 z m 6.038804,-0.733132 c -0.477038,-0.89136 -0.11544,-1.713885 0.861203,-1.959007 1.91295,-0.480128 3.186787,0.691515 2.08068,1.913744 -0.825998,0.91272 -2.46414,0.937928 -2.941883,0.0453 z m 6.315202,-1.096042 c 0.13227,-0.505808 0.003,-1.032855 -0.348525,-1.421318 -0.5208,-0.575482 -0.50598,-0.617415 0.218198,-0.617415 0.486367,0 0.844545,-0.258457 0.957667,-0.691057 0.0994,-0.380078 0.299933,-0.691043 0.445643,-0.691043 0.14571,0 0.346252,0.310965 0.445642,0.691043 0.113123,0.4326 0.471308,0.691057 0.957668,0.691057 0.724177,0 0.739005,0.04192 0.218205,0.617415 -0.351563,0.388463 -0.480795,0.91551 -0.348525,1.421318 0.191677,0.732967 0.144787,0.768877 -0.531383,0.40701 -0.55839,-0.298853 -0.924817,-0.298853 -1.483215,0 -0.676162,0.361867 -0.723052,0.325957 -0.531375,-0.40701 z m -20.338122,-1.50474 c -0.936642,-0.936638 -1.060895,-1.5651 -0.433479,-2.19252 0.754,-0.754005 1.952466,-0.480068 2.495703,0.570427 0.450162,0.870518 0.448917,1.071413 -0.01071,1.72764 -0.667073,0.952373 -1.011291,0.934665 -2.051504,-0.105517 z m -30.10874,-3.678158 c 0.132273,-0.505807 0.003,-1.032855 -0.348524,-1.421317 -0.519841,-0.574425 -0.507746,-0.617415 0.173696,-0.617415 0.402847,0 0.916597,-0.344085 1.141668,-0.764633 l 0.409219,-0.764632 0.282856,0.764632 c 0.173821,0.469883 0.574178,0.764633 1.038596,0.764633 0.703807,0 0.717344,0.04245 0.196988,0.617415 -0.351559,0.388462 -0.480796,0.91551 -0.348525,1.421317 0.191676,0.732968 0.144786,0.768878 -0.531381,0.40701 -0.558393,-0.298837 -0.924818,-0.298837 -1.483212,0 -0.676166,0.361868 -0.723055,0.325958 -0.531381,-0.40701 z m 26.722733,-1.2885 c -1.23466,-1.364287 -0.343532,-3.244462 1.248241,-2.63364 0.852985,0.32733 1.467614,2.116463 0.943869,2.747543 -0.581027,0.700095 -1.4986,0.65241 -2.19211,-0.11388 z M 19.102391,20.089214 c -0.320072,-1.008465 0.125827,-1.714485 1.236911,-1.958527 1.221094,-0.268193 2.030141,0.288495 2.030141,1.396905 0,0.865117 -0.584901,1.203997 -2.078134,1.203997 -0.656694,0 -1.052995,-0.214125 -1.188918,-0.642375 z m 42.311542,0.339983 c -0.475102,-0.156435 -1.549657,-0.634785 -2.387902,-1.062983 -1.334607,-0.681757 -1.833808,-0.749535 -4.015409,-0.545092 -2.68149,0.251272 -5.083271,-0.185063 -6.122025,-1.112205 -0.806194,-0.719565 -0.775744,-2.666378 0.06287,-4.019842 0.645577,-1.041908 3.180081,-3.155408 4.774497,-3.9814129 0.42759,-0.2215124 0.777435,-0.6356924 0.777435,-0.9203849 0,-0.8751525 1.608671,-3.7265249 2.645611,-4.6893298 1.935811,-1.7974125 3.865583,-2.5270575 6.683603,-2.5270575 2.099167,0 2.886817,0.161175 4.146322,0.848415 1.385055,0.7557675 1.97661,0.8492325 5.416545,0.8558175 3.37516,0.00675 3.984602,0.09873 4.837367,0.7326075 0.999855,0.7431824 1.36653,1.9869074 1.007513,3.4173523 -0.255458,1.0178025 -2.70468,3.4478548 -4.586672,4.5507748 -0.820523,0.480855 -1.491855,1.09791 -1.491855,1.37124 0,0.857625 -1.619948,3.716302 -2.645618,4.668645 -2.244517,2.084062 -6.597457,3.23823 -9.102284,2.413455 z m -6.186938,-4.880505 c -0.430001,-1.58937 -0.926021,-2.764215 -1.167046,-2.764215 -0.150898,0 -0.929158,0.620468 -1.729467,1.378822 -1.21146,1.147935 -1.368324,1.437795 -0.936818,1.731068 0.285059,0.19374 1.295723,0.311835 2.245921,0.26244 1.341259,-0.06975 1.696272,-0.205733 1.58741,-0.608115 z M 75.334752,7.9504047 c 1.21146,-1.1479499 1.368323,-1.4378024 0.936818,-1.7310749 -0.28506,-0.1937475 -1.295725,-0.3118425 -2.245922,-0.26244 -1.856678,0.09651 -1.818855,0.0171 -1.070955,2.2493699 0.206925,0.617625 0.499695,1.1229525 0.650587,1.1229525 0.1509,0 0.92916,-0.6204675 1.729472,-1.3788075 z M 25.202759,19.280377 c -0.581853,-0.581858 -0.516904,-1.113345 0.217247,-1.777733 0.866465,-0.784147 2.367503,-0.732622 2.811229,0.09651 0.462589,0.864353 0.457078,0.91053 -0.185286,1.552905 -0.642562,0.642555 -2.256133,0.71538 -2.84319,0.12837 z M 10.94614,18.637492 c -0.9877446,-0.987735 -0.792397,-2.528843 0.340838,-2.688885 0.565215,-0.07979 1.040964,0.14523 1.460804,0.691057 0.770491,1.001685 0.791059,1.470795 0.09501,2.16684 -0.714615,0.714623 -1.04221,0.685433 -1.896646,-0.169012 z m 20.291815,-0.209415 c -0.375431,-0.375428 -0.262661,-1.67229 0.184281,-2.11923 0.884038,-0.88404 3.040632,-0.28887 3.040632,0.83913 0,1.09041 -2.444346,2.060662 -3.224913,1.2801 z m 5.376017,-1.1772 c 0.05213,-0.307695 -0.118617,-0.816563 -0.379418,-1.13082 -0.308046,-0.371168 -0.338306,-0.571365 -0.08636,-0.571365 0.213309,0 0.698808,-0.310973 1.078887,-0.691058 l 0.691052,-0.691042 0.691054,0.691042 c 0.380079,0.380085 0.865578,0.691058 1.078887,0.691058 0.251945,0 0.221685,0.200197 -0.08636,0.571365 -0.260807,0.314257 -0.431546,0.823125 -0.379419,1.13082 0.07438,0.439065 -0.20625,0.55944 -1.30416,0.55944 -1.097908,0 -1.378541,-0.120405 -1.304161,-0.55944 z M 7.7906772,13.56192 c -0.8994056,-1.0473 -1.0124216,-1.43451 -0.6282191,-2.152403 0.5160986,-0.964335 1.5434831,-0.873405 2.3974286,0.212213 0.8592423,1.092352 0.8770323,1.29801 0.1731607,2.001877 -0.7058467,0.705855 -1.2993997,0.687 -1.9423702,-0.06165 z M 4.2476537,8.0993847 C 3.5669995,7.0605747 3.647743,6.2694298 4.4884502,5.7399898 c 0.7836967,-0.49353 1.697544,0.0516 2.1325994,1.2720674 C 7.2652944,8.8194297 5.3072177,9.7164896 4.2476537,8.0993847 Z M 0.71039733,3.4208324 c 0.13227076,-0.5057925 0.003,-1.03284 -0.34852574,-1.4213175 C -0.15892539,1.4240474 -0.14410464,1.3821 0.58007358,1.3821 1.0664373,1.3821 1.4246163,1.1236425 1.5377411,0.69105748 1.6371356,0.31097999 1.8376736,0 1.9833836,0 2.1290935,0 2.329633,0.31097999 2.429026,0.69105748 2.5421448,1.1236425 2.9003298,1.3821 3.3866928,1.3821 c 0.7241782,0 0.7389997,0.041925 0.2182027,0.6174149 -0.3515595,0.3884775 -0.4807965,0.915525 -0.348525,1.4213175 0.1916753,0.7329825 0.144786,0.7688924 -0.5313802,0.407025 -0.5583945,-0.2988525 -0.924819,-0.2988525 -1.4832127,0 C 0.56561058,4.1897248 0.51872133,4.1538149 0.71039733,3.4208324 Z"
       id="path1" /></g></svg>
