<?xml version="1.0" encoding="UTF-8" standalone="no"?>
<!-- Created with Inkscape (http://www.inkscape.org/) -->

<svg
   width="50"
   height="50"
   viewBox="0 0 13.229166 13.229167"
   version="1.1"
   id="svg5"
   inkscape:version="1.3 (0e150ed6c4, 2023-07-21)"
   sodipodi:docname="dusk.svg"
   inkscape:export-filename="C:\Users\marcu\Dropbox\Bachelor\Test\Bilder\sol.png"
   inkscape:export-xdpi="96"
   inkscape:export-ydpi="96"
   xmlns:inkscape="http://www.inkscape.org/namespaces/inkscape"
   xmlns:sodipodi="http://sodipodi.sourceforge.net/DTD/sodipodi-0.dtd"
   xmlns="http://www.w3.org/2000/svg"
   xmlns:svg="http://www.w3.org/2000/svg">
  <sodipodi:namedview
     id="namedview7"
     pagecolor="#ffffff"
     bordercolor="#666666"
     borderopacity="1.0"
     inkscape:pageshadow="2"
     inkscape:pageopacity="0.0"
     inkscape:pagecheckerboard="0"
     inkscape:document-units="mm"
     showgrid="false"
     inkscape:zoom="17.070539"
     inkscape:cx="43.495991"
     inkscape:cy="26.097594"
     inkscape:window-width="2736"
     inkscape:window-height="1714"
     inkscape:window-x="-12"
     inkscape:window-y="-12"
     inkscape:window-maximized="1"
     inkscape:current-layer="layer1"
     inkscape:showpageshadow="2"
     inkscape:deskcolor="#d1d1d1"
     showguides="false" />
  <defs
     id="defs2" />
  <g
     inkscape:label="Lag 1"
     inkscape:groupmode="layer"
     id="layer1">
    <path
       style="fill:#ffa100;stroke-width:0.999991;fill-opacity:1"
       d="m 0.37280967,11.372933 c -0.161941,-0.06662 -0.262337,-0.163205 -0.333885,-0.321202 -0.05445,-0.120249 -0.05137,-0.328468 0.0067,-0.452327 0.05899,-0.125817 0.14216,-0.213554 0.266175,-0.280804 l 0.103655,-0.05621 H 6.5255697 12.635686 l 0.09095,0.0473 c 0.245286,0.12757 0.372556,0.399719 0.307066,0.656612 -0.03613,0.14172 -0.120497,0.265587 -0.230763,0.3388 -0.17466,0.11597 0.380013,0.106611 -6.2923973,0.106177 L 0.46506267,11.41089 Z m 0.183613,-2.6001677 c -0.299015,-0.081544 -0.478071,-0.3503026 -0.430032,-0.6454702 0.03919,-0.240773 0.20985,-0.414393 0.459384,-0.4673395 0.1323,-0.028072 1.27648303,-0.024859 1.38409103,0.00389 0.319915,0.085459 0.496736,0.3535904 0.438103,0.664342 -0.03665,0.1942581 -0.179988,0.3572208 -0.382426,0.4347917 -0.103608,0.039701 -1.32948203,0.047871 -1.46912003,0.00979 z m 3.28203103,0.00311 c -0.293684,-0.093773 -0.454745,-0.3262636 -0.454745,-0.6564214 0,-0.2563027 0.06828,-0.6620057 0.157185,-0.9339502 0.247383,-0.7567028 0.75863,-1.3926184 1.457385,-1.8127731 0.540288,-0.3248706 1.263467,-0.4952884 1.89147,-0.4457268 1.352341,0.1067263 2.483226,0.9828388 2.891857,2.2403645 0.1110539,0.3417583 0.1819919,0.8056101 0.1632539,1.0674943 -0.0158,0.2207659 -0.1449269,0.402931 -0.3567679,0.5032903 l -0.110804,0.052493 -2.786345,0.00317 c -2.222098,0.00253 -2.799739,-0.0011 -2.852489,-0.017943 z m 7.4712783,-0.00767 c -0.262967,-0.09087 -0.397597,-0.2979375 -0.382368,-0.5880995 0.0057,-0.1082266 0.01627,-0.1509828 0.05506,-0.2222452 0.0619,-0.1137374 0.183104,-0.2220199 0.302243,-0.2700275 0.09188,-0.037025 0.110764,-0.038122 0.741692,-0.043107 0.723702,-0.00572 0.779951,4.552e-4 0.938455,0.1029862 0.110945,0.071767 0.147442,0.1135568 0.203222,0.2326983 0.03966,0.084715 0.04636,0.1196587 0.04595,0.23973 -3.94e-4,0.115647 -0.008,0.15668 -0.04295,0.2315104 -0.04986,0.1067799 -0.151492,0.2163898 -0.244754,0.2639696 -0.146377,0.074677 -0.235497,0.082825 -0.902425,0.082512 -0.560638,-2.636e-4 -0.637619,-0.00349 -0.714126,-0.029927 z M 3.0184067,5.36186 C 2.9675567,5.345142 2.8931437,5.308691 2.8530447,5.280857 2.8129447,5.253023 2.5936257,5.0416325 2.3656657,4.8110993 1.9313097,4.3718385 1.8988147,4.3292666 1.8600977,4.1487286 c -0.05886,-0.2744299 0.09955,-0.5797461 0.366079,-0.7055873 0.07886,-0.037234 0.112927,-0.042971 0.25631,-0.043161 0.153023,-2.031e-4 0.173999,0.00386 0.281115,0.054469 0.10427,0.049263 0.157928,0.096922 0.540911,0.4804477 0.380662,0.3812018 0.430849,0.4377809 0.479549,0.5406245 0.05024,0.1060935 0.05439,0.1275192 0.05439,0.2805772 0,0.15379 -0.0039,0.1736248 -0.05414,0.2756908 -0.06778,0.1376807 -0.198163,0.2610825 -0.330381,0.3126881 -0.129375,0.050497 -0.312566,0.057808 -0.435525,0.017382 z M 9.9201686,5.35558 C 9.7161717,5.280993 9.5800957,5.1429484 9.5187037,4.9483118 c -0.0578,-0.1832592 -0.03388,-0.3735786 0.06681,-0.5315589 0.02609,-0.040928 0.239366,-0.2656325 0.4739553,-0.4993438 0.509379,-0.5074708 0.524049,-0.5170757 0.790323,-0.517429 0.145071,-1.925e-4 0.176964,0.00522 0.259916,0.044099 0.13209,0.061911 0.250315,0.1780072 0.31486,0.3091893 0.0498,0.1012034 0.05356,0.1206892 0.05309,0.2745879 -8.28e-4,0.2667681 -0.0075,0.2767689 -0.551509,0.8210106 -0.42019,0.4204066 -0.464612,0.4599468 -0.555901,0.4948095 -0.145324,0.055499 -0.318332,0.060075 -0.4500724,0.011906 z M 6.4842407,3.9335241 c -0.0854,-0.03029 -0.217229,-0.1264298 -0.261706,-0.1908452 -0.02347,-0.033989 -0.05976,-0.099006 -0.08065,-0.1444807 -0.03772,-0.082122 -0.03798,-0.087442 -0.03798,-0.7854818 0,-0.6913022 6.11e-4,-0.7043088 0.03734,-0.7950621 0.09681,-0.2392116 0.326775,-0.3803685 0.581001,-0.3566281 0.215193,0.020095 0.406756,0.1700924 0.482864,0.3780899 0.03651,0.099767 0.03825,0.127371 0.04418,0.698251 0.0067,0.6409447 -0.0018,0.7468234 -0.07244,0.9021722 -0.05345,0.1176326 -0.179076,0.2360499 -0.29738,0.2803137 -0.100401,0.037566 -0.307654,0.044735 -0.395226,0.013671 z"
       id="path5" />
  </g>
</svg>
