<?xml version="1.0" encoding="UTF-8" standalone="no"?>
<!-- Created with Inkscape (http://www.inkscape.org/) -->

<svg
   width="80"
   height="80"
   viewBox="0 0 21.166666 21.166667"
   version="1.1"
   id="svg5"
   inkscape:version="1.3 (0e150ed6c4, 2023-07-21)"
   sodipodi:docname="house.svg"
   xmlns:inkscape="http://www.inkscape.org/namespaces/inkscape"
   xmlns:sodipodi="http://sodipodi.sourceforge.net/DTD/sodipodi-0.dtd"
   xmlns="http://www.w3.org/2000/svg"
   xmlns:svg="http://www.w3.org/2000/svg">
  <sodipodi:namedview
     id="namedview7"
     pagecolor="#ffffff"
     bordercolor="#666666"
     borderopacity="1.0"
     inkscape:pageshadow="2"
     inkscape:pageopacity="0.0"
     inkscape:pagecheckerboard="0"
     inkscape:document-units="mm"
     showgrid="false"
     units="px"
     width="50px"
     inkscape:zoom="17.597674"
     inkscape:cx="27.901415"
     inkscape:cy="36.311618"
     inkscape:window-width="2736"
     inkscape:window-height="1714"
     inkscape:window-x="-12"
     inkscape:window-y="-12"
     inkscape:window-maximized="1"
     inkscape:current-layer="layer1"
     inkscape:showpageshadow="2"
     inkscape:deskcolor="#d1d1d1" />
  <defs
     id="defs2" />
  <g
     inkscape:label="Lag 1"
     inkscape:groupmode="layer"
     id="layer1">
    <path
       style="fill:#000000;stroke-width:1.3106"
       d="M 3.435258,20.5067 C 3.3280059,20.476228 3.2253386,20.392074 3.1749845,20.293371 3.1322942,20.209689 3.1318394,20.158678 3.1318394,15.451812 V 10.694825 L 5.5641504,8.5427632 C 6.9019217,7.3591298 8.5670018,5.8859305 9.2643284,5.2689875 9.961655,4.6520446 10.54079,4.1501382 10.551297,4.1536403 c 0.01048,0.0035 1.695644,1.4786705 3.744753,3.2781521 l 3.725651,3.2717846 -0.01298,1.798837 c -0.0072,0.989361 -0.02033,3.125209 -0.02927,4.74633 l -0.01625,2.947492 -0.04672,0.09085 c -0.05558,0.108099 -0.15561,0.188627 -0.274682,0.221153 -0.06018,0.01643 -0.800743,0.02372 -2.421622,0.0238 l -2.33493,1.21e-4 -0.0058,-2.132904 -0.0058,-2.132905 -0.06502,-0.09204 c -0.03577,-0.05062 -0.104036,-0.11241 -0.151709,-0.137315 -0.08612,-0.04498 -0.100012,-0.04527 -2.113097,-0.04527 H 8.5174547 l -0.08669,0.04646 c -0.1064033,0.05702 -0.1510104,0.104862 -0.1942285,0.208294 -0.02922,0.06993 -0.03333,0.3393 -0.03333,2.182736 v 2.102951 l -2.3460798,-0.002 c -1.4840935,-0.0012 -2.3739496,-0.0099 -2.4219342,-0.02351 z M 0.5191421,10.529124 C 0.23368065,10.200322 1.2111504e-4,9.920232 1.2111504e-4,9.906701 c 0,-0.02721 -0.057665135,0.02496 2.34352758496,-2.1200188 C 3.2837548,6.9468875 4.8714541,5.5285265 5.8718695,4.6347688 10.523471,0.47908915 10.488941,0.50958365 10.516841,0.53273065 c 0.01873,0.015536 0.03557,0.015443 0.05453,-3.017e-4 0.02067,-0.017148 0.212417,0.1415413 0.775904,0.64211025 0.411651,0.3656883 1.391581,1.2354226 2.177621,1.9327429 0.786041,0.6973204 1.51608,1.3457122 1.62231,1.4408707 l 0.193146,0.1730153 -0.01459,-0.4005791 c -0.008,-0.2203186 -0.02075,-0.544432 -0.02826,-0.7202521 l -0.01367,-0.3196728 h 1.368601 1.368599 l 10e-4,1.9017827 0.001,1.9017829 1.461607,1.3112005 c 0.803885,0.721161 1.511202,1.3551438 1.571818,1.4088518 l 0.11021,0.09765 -0.553373,0.606713 c -0.304354,0.333692 -0.56308,0.606712 -0.574943,0.606712 -0.01193,0 -0.536455,-0.454058 -1.165758,-1.009019 C 18.243346,9.551381 16.111909,7.6714625 14.136123,5.928744 L 10.543784,2.7601647 7.1358124,5.7662511 C 5.261428,7.4195986 3.1301492,9.299517 2.3996373,9.943848 c -0.7305118,0.64433 -1.3356894,1.174118 -1.3448387,1.177304 -0.00915,0.0032 -0.25019484,-0.263225 -0.5356565,-0.592028 z"
       id="path1"
       sodipodi:nodetypes="csscsscsccsccsccccccscssscscssssscsssccccccccsscsssscssss" />
  </g>
</svg>
