<?xml version="1.0" encoding="UTF-8" standalone="no"?>
<!-- Created with Inkscape (http://www.inkscape.org/) -->

<svg
   width="79.375mm"
   height="79.555115mm"
   viewBox="0 0 79.375 79.555115"
   version="1.1"
   id="svg1"
   inkscape:version="1.3 (0e150ed6c4, 2023-07-21)"
   sodipodi:docname="kartvarsel.svg"
   xmlns:inkscape="http://www.inkscape.org/namespaces/inkscape"
   xmlns:sodipodi="http://sodipodi.sourceforge.net/DTD/sodipodi-0.dtd"
   xmlns="http://www.w3.org/2000/svg"
   xmlns:svg="http://www.w3.org/2000/svg">
  <sodipodi:namedview
     id="namedview1"
     pagecolor="#ffffff"
     bordercolor="#000000"
     borderopacity="0.25"
     inkscape:showpageshadow="2"
     inkscape:pageopacity="0.0"
     inkscape:pagecheckerboard="0"
     inkscape:deskcolor="#d1d1d1"
     inkscape:document-units="mm"
     inkscape:zoom="1.2249228"
     inkscape:cx="397.16787"
     inkscape:cy="562.07622"
     inkscape:window-width="2736"
     inkscape:window-height="1714"
     inkscape:window-x="-12"
     inkscape:window-y="-12"
     inkscape:window-maximized="1"
     inkscape:current-layer="layer1" />
  <defs
     id="defs1" />
  <g
     inkscape:label="Layer 1"
     inkscape:groupmode="layer"
     id="layer1">
    <path
       style="fill:#000000;stroke-width:1.2529"
       d="M 1.4742607,79.19278 C 1.0184501,78.959797 0.45152432,78.36457 0.21438428,77.870078 -0.36991564,76.651447 -0.48264863,76.871934 9.827355,59.070227 c 7.19699,-12.426678 8.891295,-15.133378 9.63719,-15.395698 2.112082,-0.742781 2.043257,-0.836999 12.083588,16.546053 5.155773,8.926342 9.374163,16.486472 9.374163,16.800252 0,0.313806 -0.359954,0.989084 -0.799909,1.500651 l -0.799859,0.930091 -18.509767,0.08239 C 6.3113999,79.598435 2.1235271,79.52401 1.4742607,79.19278 Z M 33.629375,74.156909 c 0,-0.353806 -12.960984,-22.55856 -13.21851,-22.646 C 20.182113,51.433223 7.1096908,73.70416 7.1096908,74.17142 c 0,0.07816 5.9669082,0.141881 13.2598542,0.141881 7.292897,0 13.25983,-0.07044 13.25983,-0.156567 z m -14.94281,-2.138492 c -0.840233,-0.840208 -0.994908,-1.207854 -0.816212,-1.939959 0.729192,-2.987163 4.930133,-2.768218 4.930133,0.256979 0,1.187218 -0.86281,2.179114 -2.173987,2.499168 -0.732105,0.17872 -1.099726,0.02489 -1.939934,-0.816188 z m -0.01742,-6.954449 c -0.677941,-0.548954 -0.79152,-0.967029 -0.877968,-3.232069 -0.11226,-2.941363 0.295386,-4.081661 1.626526,-4.549793 2.434227,-0.856064 3.738509,0.86729 3.545726,4.685003 -0.106535,2.107627 -0.239455,2.566076 -0.899226,3.100369 -0.990552,0.802099 -2.402017,0.800631 -3.395058,-0.005 z m 23.125871,1.932441 c -1.157224,-0.910277 -1.221967,-2.862208 -0.127693,-3.845417 0.41026,-0.368566 2.869402,-1.326884 5.46485,-2.129655 l 4.718955,-1.45953 0.005,-26.602555 C 51.858591,18.327838 51.749069,6.3568415 51.612416,6.3570158 51.475762,6.357205 47.783651,7.3793938 43.407898,8.6285719 l -7.955928,2.2712051 -0.165776,19.304588 -0.165777,19.304588 -0.93009,0.799849 c -1.120784,0.963856 -2.206172,1.019222 -3.259749,0.1663 L 30.148043,49.841534 29.982267,30.507027 29.816491,11.172519 22.523594,9.7809376 C 18.512475,9.0155804 14.745864,8.2981839 14.1533,8.1867502 L 13.075952,7.9841345 V 25.417768 42.851402 l -0.813674,0.813671 c -1.076477,1.076477 -2.6001021,1.076477 -3.676579,0 L 7.7718012,42.851402 V 23.517571 c 0,-20.9868783 -0.047542,-20.427522 1.7998448,-21.129934 0.507112,-0.1928085 4.198377,0.3750681 11.783,1.8127187 L 32.399194,6.2938365 43.296783,3.1469183 54.194372,0 66.013041,1.1395242 77.831735,2.2790609 78.603368,3.1761233 79.375,4.0731857 V 34.23592 64.398647 l -0.813699,0.813649 c -1.034784,1.034809 -0.982537,1.035481 -13.457591,-0.169261 l -10.127575,-0.978107 -5.72138,1.809304 c -3.146766,0.995107 -5.91603,1.809279 -6.153917,1.809279 -0.237961,0 -0.825572,-0.309176 -1.305975,-0.687052 z M 73.824549,7.3347038 C 73.620938,7.1564816 59.030341,5.6798885 57.579224,5.6906241 57.251181,5.6931133 57.164833,11.24515 57.164833,32.337789 v 26.644099 l 4.226604,0.401622 c 2.324604,0.220786 6.091265,0.57514 8.370294,0.787214 l 4.14369,0.385567 0.08488,-26.501117 C 74.037096,19.479552 73.962422,7.4553448 73.824524,7.3347038 Z"
       id="path3" />
  </g>
</svg>
