<?xml version="1.0" encoding="UTF-8" standalone="no"?>
<!-- Created with Inkscape (http://www.inkscape.org/) -->

<svg
   width="19.710217mm"
   height="25.570013mm"
   viewBox="0 0 19.710217 25.570013"
   version="1.1"
   id="svg1"
   inkscape:version="1.3 (0e150ed6c4, 2023-07-21)"
   sodipodi:docname="status.svg"
   xmlns:inkscape="http://www.inkscape.org/namespaces/inkscape"
   xmlns:sodipodi="http://sodipodi.sourceforge.net/DTD/sodipodi-0.dtd"
   xmlns="http://www.w3.org/2000/svg"
   xmlns:svg="http://www.w3.org/2000/svg">
  <sodipodi:namedview
     id="namedview1"
     pagecolor="#ffffff"
     bordercolor="#000000"
     borderopacity="0.25"
     inkscape:showpageshadow="2"
     inkscape:pageopacity="0.0"
     inkscape:pagecheckerboard="0"
     inkscape:deskcolor="#d1d1d1"
     inkscape:document-units="mm"
     inkscape:zoom="1.2249228"
     inkscape:cx="397.16787"
     inkscape:cy="418.3937"
     inkscape:window-width="2736"
     inkscape:window-height="1714"
     inkscape:window-x="-12"
     inkscape:window-y="-12"
     inkscape:window-maximized="1"
     inkscape:current-layer="layer1" />
  <defs
     id="defs1" />
  <g
     inkscape:label="Layer 1"
     inkscape:groupmode="layer"
     id="layer1">
    <path
       style="fill:#000000;stroke-width:0.503347"
       d="M 0.295987,25.362694 0,25.155376 V 12.785006 0.414637 L 0.295987,0.207319 C 0.556991,0.024503 1.686791,0 9.855108,0 c 8.168318,0 9.298118,0.02451 9.559122,0.207319 l 0.295987,0.207318 v 12.370369 12.37037 l -0.295987,0.207318 c -0.261004,0.182816 -1.390804,0.207319 -9.559122,0.207319 -8.168317,0 -9.298117,-0.02451 -9.559121,-0.207319 z m 16.538971,-1.873808 c 0.213863,-0.557321 0.0069,-0.582418 -4.802914,-0.582418 -3.950464,0 -4.593056,0.02753 -4.659141,0.199768 -0.04216,0.109871 -0.04216,0.289661 0,0.399532 0.06611,0.17229 0.716304,0.199763 4.727788,0.199763 4.172548,0 4.659686,-0.0223 4.734267,-0.216645 z M 5.932436,23.112287 c 0.299124,-0.299124 0.32689,-0.429723 0.32689,-1.537589 0,-1.09874 -0.02941,-1.240115 -0.318064,-1.528764 -0.616153,-0.616152 -2.496294,-0.644969 -3.093847,-0.04742 -0.612856,0.612855 -0.601561,2.502368 0.01866,3.122597 0.28865,0.28865 0.430023,0.31806 1.528764,0.31806 1.107867,0 1.238467,-0.02779 1.537591,-0.326888 z m -2.547454,-0.65267 c -0.03809,-0.09927 -0.0512,-0.563728 -0.02911,-1.032122 l 0.04015,-0.851628 H 4.394851 5.39368 l 0.03995,0.843987 c 0.02402,0.507595 -0.02228,0.918975 -0.11619,1.032122 -0.213235,0.256934 -1.834332,0.263341 -1.932454,0.0077 z m 9.467725,-1.285568 c 1.104733,-1.108892 1.30414,-1.370537 1.186581,-1.556906 -0.07772,-0.123209 -0.213581,-0.248105 -0.301917,-0.277551 -0.08834,-0.02945 -0.668273,0.441979 -1.288749,1.047611 l -1.128139,1.101146 -0.308445,-0.289766 c -0.36729,-0.345055 -0.828424,-0.377475 -0.947705,-0.06663 -0.0998,0.260074 0.915926,1.374987 1.252657,1.374987 0.114306,0 0.805379,-0.599798 1.535717,-1.332888 z m 3.68534,-3.29613 c 0.297729,-0.07771 0.417356,-0.420516 0.226848,-0.650062 -0.12623,-0.152102 -0.964717,-0.178432 -4.763381,-0.149595 l -4.610183,0.03498 -0.04266,0.300477 c -0.03038,0.213973 0.04629,0.334469 0.266354,0.418563 0.305401,0.116711 8.490329,0.15855 8.923027,0.0456 z M 5.932436,17.252495 c 0.299124,-0.299123 0.32689,-0.429727 0.32689,-1.537593 0,-1.107866 -0.02776,-1.238464 -0.32689,-1.537588 -0.300558,-0.300559 -0.42742,-0.326889 -1.574911,-0.326889 -1.16942,0 -1.268356,0.02164 -1.570885,0.34367 -0.292359,0.311205 -0.322863,0.456989 -0.322863,1.54307 0,1.149055 0.01568,1.212884 0.373663,1.520807 0.335074,0.288216 0.497306,0.321412 1.570886,0.321412 1.093554,0 1.225526,-0.02829 1.52411,-0.326889 z m -2.5452,-0.6468 c -0.03934,-0.102502 -0.05345,-0.569602 -0.03137,-1.037997 l 0.04015,-0.851622 h 0.998829 0.998829 v 0.998826 0.998831 l -0.967461,0.03916 c -0.733512,0.0297 -0.984755,-0.0059 -1.038978,-0.147204 z m 9.39881,-1.224779 c 1.161524,-1.165489 1.371013,-1.436858 1.253288,-1.623494 -0.07774,-0.123249 -0.213627,-0.24818 -0.301963,-0.277626 -0.08834,-0.02945 -0.668273,0.441979 -1.288749,1.047611 l -1.128139,1.101151 -0.308445,-0.289772 c -0.363448,-0.34144 -0.659065,-0.368958 -0.896054,-0.0834 -0.145608,0.175446 -0.07398,0.305144 0.478101,0.86565 0.357154,0.362606 0.682659,0.659284 0.723345,0.659284 0.04069,0 0.701563,-0.629732 1.468616,-1.399404 z m 3.918172,-3.471073 c 0.115104,-0.115106 0.209279,-0.257588 0.209279,-0.316636 0,-0.373126 -0.473369,-0.409029 -4.941544,-0.374802 -4.284126,0.03282 -4.579996,0.05039 -4.623125,0.274521 -0.117423,0.610202 0.0029,0.626193 4.710497,0.626193 3.854808,0 4.463018,-0.02738 4.644893,-0.209276 z M 5.932436,11.392699 c 0.299124,-0.299124 0.32689,-0.429722 0.32689,-1.537588 0,-1.107866 -0.02776,-1.23847 -0.32689,-1.537593 C 5.633852,8.018932 5.50188,7.990629 4.408326,7.990629 c -1.07358,0 -1.235812,0.03322 -1.570886,0.321412 -0.35798,0.307923 -0.373663,0.371752 -0.373663,1.520807 0,1.086081 0.0305,1.231865 0.322863,1.54307 0.302529,0.322026 0.401465,0.34367 1.570885,0.34367 1.147491,0 1.274353,-0.02632 1.574911,-0.326889 z m -2.5452,-0.646795 C 3.3479,10.643397 3.333786,10.176296 3.355867,9.707907 L 3.396017,8.85628 4.35757,8.81722 c 0.91269,-0.03705 0.965539,-0.02315 1.039991,0.273473 0.04314,0.171888 0.05992,0.638929 0.03728,1.037876 l -0.04116,0.725358 -0.96746,0.03916 c -0.733513,0.0297 -0.984755,-0.0059 -1.038979,-0.147203 z m 9.43614,-1.143549 C 14.185617,8.240113 14.381948,7.838357 13.730598,7.745872 13.484307,7.710892 13.181361,7.931884 12.37049,8.737998 L 11.327251,9.775119 11.015422,9.482171 C 10.654717,9.143308 10.35398,9.108824 10.128528,9.380475 c -0.112926,0.13607 -0.1191,0.265294 -0.0214,0.447858 0.177631,0.331907 1.043276,1.092192 1.243545,1.092192 0.08499,0 0.747705,-0.593174 1.472699,-1.31817 z m 3.9615,-3.617895 C 16.894067,5.780434 16.891072,5.6603 16.773256,5.518341 16.641122,5.359128 15.871646,5.327084 12.180295,5.327084 c -2.438829,0 -4.529031,0.03639 -4.644893,0.08084 -0.249841,0.09587 -0.2829,0.666879 -0.04419,0.763204 0.09156,0.03695 2.186991,0.0719 4.656515,0.07769 4.405474,0.01032 4.492813,0.0053 4.637147,-0.264353 z M 5.520409,5.804484 C 6.144441,5.543745 6.259326,5.252529 6.259326,3.93143 6.259326,2.891395 6.228886,2.754177 5.932436,2.457726 5.633312,2.158602 5.502712,2.130833 4.394845,2.130833 c -1.098741,0 -1.240114,0.0294 -1.528764,0.318065 C 2.479367,2.835614 2.337517,3.51185 2.438293,4.488282 2.515753,5.238803 2.771114,5.665812 3.26284,5.867075 3.696712,6.044651 5.034357,6.007569 5.520409,5.804484 Z M 3.387236,4.886107 C 3.347896,4.783601 3.333786,4.316505 3.355866,3.848111 l 0.04015,-0.851622 0.877985,-0.03891 c 1.105072,-0.04898 1.213132,0.06217 1.159624,1.192574 l -0.03995,0.843982 -0.96746,0.03916 C 3.692702,5.062995 3.44146,5.027395 3.387236,4.886091 Z M 12.808973,3.765401 C 13.742096,2.848625 14.116118,2.391707 14.088795,2.201931 14.005565,1.623877 13.569141,1.818622 12.447711,2.934225 L 11.346034,4.030181 10.968169,3.679807 C 10.539021,3.281876 10.355572,3.24711 10.128528,3.520684 c -0.112926,0.136065 -0.1191,0.265294 -0.0214,0.447853 0.174417,0.325902 1.041756,1.092197 1.236214,1.092197 0.08096,0 0.740491,-0.582901 1.465627,-1.295333 z"
       id="path1" />
  </g>
</svg>
