<?xml version="1.0" encoding="UTF-8" standalone="no"?>
<!-- Created with Inkscape (http://www.inkscape.org/) -->

<svg
   width="300"
   height="300.93002"
   viewBox="0 0 79.374998 79.621069"
   version="1.1"
   id="svg1"
   xml:space="preserve"
   inkscape:version="1.3 (0e150ed6c4, 2023-07-21)"
   sodipodi:docname="tidevann.svg"
   xmlns:inkscape="http://www.inkscape.org/namespaces/inkscape"
   xmlns:sodipodi="http://sodipodi.sourceforge.net/DTD/sodipodi-0.dtd"
   xmlns="http://www.w3.org/2000/svg"
   xmlns:svg="http://www.w3.org/2000/svg"><sodipodi:namedview
     id="namedview1"
     pagecolor="#ffffff"
     bordercolor="#000000"
     borderopacity="0.25"
     inkscape:showpageshadow="2"
     inkscape:pageopacity="0.0"
     inkscape:pagecheckerboard="0"
     inkscape:deskcolor="#d1d1d1"
     inkscape:document-units="mm"
     inkscape:zoom="1.2249228"
     inkscape:cx="397.16787"
     inkscape:cy="562.07622"
     inkscape:window-width="2736"
     inkscape:window-height="1714"
     inkscape:window-x="-12"
     inkscape:window-y="-12"
     inkscape:window-maximized="1"
     inkscape:current-layer="layer1" /><defs
     id="defs1" /><g
     inkscape:label="Layer 1"
     inkscape:groupmode="layer"
     id="layer1"><path
       style="fill:#000000;stroke-width:0.58826"
       d="M 9.4164569,79.464127 C 6.631097,78.910327 4.358163,77.674392 2.4640279,75.68366 1.4325625,74.59959 0.38080631,73.02934 0.13367514,72.204493 -0.32869761,70.661227 0.74142823,69.259208 2.3817344,69.259208 c 0.9373615,0 1.5786708,0.474367 2.314597,1.712079 3.1807366,5.349506 10.7731876,5.349506 13.9539236,0 0.749086,-1.259842 1.372909,-1.712079 2.361673,-1.712079 0.988764,0 1.612587,0.452237 2.361673,1.712079 1.831772,3.080756 5.385734,4.619145 8.807376,3.812411 2.133567,-0.50304 4.00164,-1.886852 5.146548,-3.812411 0.749086,-1.259842 1.372909,-1.712079 2.361673,-1.712079 0.988764,0 1.612587,0.452237 2.361673,1.712079 1.831771,3.080756 5.385735,4.619145 8.807376,3.812411 2.133567,-0.50304 4.001639,-1.886852 5.146548,-3.812411 0.749086,-1.259842 1.372909,-1.712079 2.361673,-1.712079 0.988763,0 1.612584,0.452237 2.361675,1.712079 3.180736,5.349506 10.773185,5.349506 13.953927,0 0.735925,-1.237712 1.377235,-1.712079 2.314593,-1.712079 1.640306,0 2.710434,1.402019 2.248061,2.945285 -0.424924,1.418261 -2.391726,3.819258 -4.17139,5.092259 -2.230272,1.595333 -4.481898,2.298005 -7.368234,2.299428 -3.33939,0.0018 -6.05053,-1.014008 -8.423278,-3.155553 l -0.924309,-0.834241 -0.734831,0.685059 c -2.398357,2.235907 -5.173736,3.303047 -8.594849,3.304735 -3.339391,0.0018 -6.05053,-1.014008 -8.423282,-3.155553 l -0.924308,-0.834241 -0.734831,0.685059 c -2.398357,2.235907 -5.173736,3.303047 -8.594849,3.304735 -3.339391,0.0018 -6.05053,-1.014008 -8.423281,-3.155553 l -0.924308,-0.834241 -0.734832,0.685059 c -1.493342,1.392194 -3.497146,2.486671 -5.48197,2.994257 -1.408487,0.360192 -4.019192,0.446943 -5.3697151,0.178425 z M 9.9912286,67.699971 C 7.4495315,67.348026 4.9040175,66.136862 2.9753586,64.361786 1.5777082,63.075437 0,60.631668 0,59.753148 c 0,-1.548116 1.4736302,-2.722372 2.9257365,-2.331361 0.6791506,0.182872 1.1951496,0.691947 1.8228591,1.798385 1.0191737,1.796459 3.1168884,3.27717 5.2904364,3.734348 1.365979,0.287324 1.903723,0.287224 3.268523,-5.88e-4 2.201893,-0.464343 4.259452,-1.916476 5.290436,-3.733754 0.90455,-1.594418 1.791422,-2.125176 3.005015,-1.798385 0.679151,0.182872 1.19515,0.691947 1.822859,1.798385 1.019174,1.796459 3.116888,3.27717 5.290437,3.734348 1.36598,0.287324 1.903722,0.287224 3.268522,-5.88e-4 2.201894,-0.464344 4.259453,-1.916476 5.290437,-3.733754 0.62771,-1.106438 1.143708,-1.615513 1.822859,-1.798385 1.213593,-0.326791 2.100465,0.203967 3.005015,1.798385 1.019173,1.796459 3.116888,3.27717 5.290437,3.734348 1.365979,0.287324 1.903721,0.287224 3.268522,-5.88e-4 2.201893,-0.464344 4.259453,-1.916476 5.290437,-3.733754 0.627709,-1.106438 1.143708,-1.615513 1.822859,-1.798386 1.21359,-0.32679 2.100463,0.203968 3.005014,1.798386 1.477581,2.60447 4.894086,4.276836 7.862289,3.848565 2.909984,-0.419877 4.632558,-1.638677 6.4555,-4.567563 0.50071,-0.804482 1.062105,-1.130772 1.945548,-1.130772 1.218764,0 2.151893,0.858678 2.286816,2.104369 0.167766,1.54889 -2.119526,4.574525 -4.737968,6.26741 -2.2036,1.424672 -4.186802,2.003203 -6.887489,2.00918 -3.354691,0.0074 -6.322212,-1.163109 -8.754969,-3.453384 l -0.583663,-0.549482 -0.583665,0.549482 c -0.995312,0.937017 -1.831823,1.517689 -3.098958,2.151157 -3.552619,1.776029 -7.759405,1.776029 -11.312025,0 -1.267135,-0.633468 -2.103645,-1.21414 -3.098957,-2.151157 l -0.583665,-0.549482 -0.583665,0.549482 c -1.568886,1.476999 -3.515326,2.549645 -5.642091,3.109245 -1.84176,0.484609 -4.383998,0.484609 -6.225757,0 -2.126766,-0.5596 -4.073206,-1.632246 -5.642092,-3.109245 l -0.583665,-0.549482 -0.583664,0.549482 c -1.536051,1.446086 -3.516456,2.550421 -5.503548,3.068938 -1.42724,0.372428 -3.593145,0.518646 -4.9334874,0.333055 z M 8.9495251,55.652893 C 5.3060745,54.814163 2.0540315,52.325168 0.45005222,49.147703 -0.07452496,48.108517 -0.10347855,47.634215 0.30300827,46.738876 0.51272843,46.276945 0.78251176,45.992991 1.2272526,45.766105 c 1.3368049,-0.681988 2.4612653,-0.241045 3.3956565,1.331563 3.2924858,5.541361 10.7929169,5.548138 14.0913799,0.01277 1.34367,-2.254908 3.253664,-2.254908 4.593459,0 0.747459,1.257995 2.165816,2.659597 3.244583,3.206249 3.995131,2.024487 8.519851,0.686071 10.839227,-3.206249 0.454336,-0.76245 0.797313,-1.143849 1.224688,-1.361882 1.315386,-0.671058 2.428152,-0.221203 3.368772,1.361882 3.284898,5.528578 10.789411,5.528578 14.08381,0 1.34367,-2.254908 3.253666,-2.254908 4.593459,0 3.288964,5.53542 10.789474,5.528637 14.09138,-0.01277 0.937152,-1.57275 2.061182,-2.013292 3.397481,-1.331563 0.681611,0.347733 1.217558,1.253924 1.223834,2.069301 0.0047,0.61222 -0.939534,2.352636 -1.923776,3.545881 -0.907204,1.099847 -2.696586,2.531355 -3.939469,3.151576 -1.818031,0.907239 -3.109957,1.226582 -5.261878,1.300668 -1.467222,0.05053 -2.336424,0.0029 -3.162283,-0.172308 -2.075806,-0.440995 -4.318479,-1.590074 -6.010875,-3.079779 l -0.728946,-0.641639 -0.496486,0.466161 c -1.401633,1.316015 -3.25285,2.391497 -5.165805,3.001111 -1.481104,0.471991 -4.646337,0.600184 -6.275159,0.254146 -2.075802,-0.440995 -4.31848,-1.590074 -6.010875,-3.079779 l -0.728945,-0.641639 -0.496486,0.466161 c -1.401632,1.316015 -3.25285,2.391497 -5.165804,3.001111 -1.481104,0.471991 -4.646338,0.600184 -6.27516,0.254146 -2.075801,-0.440995 -4.31848,-1.590074 -6.010875,-3.079779 l -0.728945,-0.641639 -0.496486,0.466161 c -1.400215,1.314686 -3.249178,2.389326 -5.165803,3.002423 -1.389778,0.444572 -4.924061,0.579983 -6.3814009,0.244504 z M 20.155887,40.478785 c -0.401728,-0.187603 -2.066936,-1.746128 -4.694267,-4.393518 -3.41717,-3.443259 -4.102916,-4.209116 -4.265933,-4.764269 -0.522897,-1.780711 1.074153,-3.376568 2.851176,-2.849051 0.521292,0.154753 1.098564,0.628462 2.723769,2.235137 l 2.062282,2.038775 V 26.78218 c 0,-5.785936 0.0098,-5.98115 0.329636,-6.55018 0.382054,-0.679771 1.28778,-1.245777 1.993503,-1.245777 0.757265,0 1.605545,0.514504 1.997201,1.211363 0.344664,0.61325 0.348977,0.694618 0.348977,6.584594 v 5.963679 l 2.062282,-2.038775 c 1.625205,-1.606675 2.202476,-2.080384 2.723768,-2.235137 1.777023,-0.527517 3.374074,1.06834 2.851176,2.849051 -0.163017,0.555153 -0.848762,1.32101 -4.265932,4.764269 -4.029092,4.05985 -4.789696,4.684265 -5.705953,4.684265 -0.21401,0 -0.669269,-0.130835 -1.011685,-0.290747 z m 39.021236,-4.838561 c -3.925179,-0.55437 -7.52053,-2.344012 -10.330245,-5.142038 -4.498952,-4.480227 -6.244964,-10.969499 -4.632506,-17.217278 0.630388,-2.442564 1.369034,-3.3220367 2.79009,-3.3220367 1.279559,0 2.334659,1.0653217 2.334659,2.3572777 0,1.51317 0.996403,3.418558 2.345267,4.484774 2.649072,2.093972 6.513024,1.694055 8.649902,-0.895262 0.967236,-1.172026 1.355458,-2.308169 1.36723,-4.001242 0.0088,-1.257606 -0.04012,-1.50617 -0.477927,-2.4316803 C 60.650451,8.2611668 59.878724,7.359197 58.864092,6.7150406 58.062892,6.2063817 56.712715,5.7584233 55.964648,5.7530689 55.220286,5.7477157 54.20653,5.2110851 53.856592,4.6371182 53.264803,3.6664719 53.518308,2.2735187 54.415129,1.5680796 54.982631,1.1216829 57.05473,0.49053292 58.83275,0.22249673 70.714582,-1.5686877 80.941038,8.6847461 79.146573,20.589897 c -1.09733,7.280047 -6.562981,13.133457 -13.776132,14.75345 -1.530877,0.343815 -4.763751,0.498786 -6.193318,0.296877 z m 4.325591,-4.675747 c 4.303138,-0.678917 7.98679,-3.425929 9.873388,-7.36288 1.00562,-2.098531 1.248165,-3.207108 1.248165,-5.704886 0,-2.497777 -0.242545,-3.606348 -1.248165,-5.704879 C 72.16645,9.6675353 70.26301,7.6459246 67.845753,6.3181542 66.77959,5.7325269 64.753303,4.9782675 64.246199,4.9782675 c -0.259505,0 -0.241722,0.072618 0.161966,0.6614871 2.604417,3.7991062 2.682279,8.4927304 0.203873,12.2892694 -3.023994,4.632299 -9.125686,6.214337 -14.109086,3.658187 -0.426097,-0.218563 -1.019091,-0.580325 -1.317763,-0.803923 -0.299235,-0.224021 -0.567618,-0.332814 -0.597781,-0.242328 -0.08331,0.249934 0.575724,2.306358 1.021831,3.188472 2.625242,5.191052 8.257785,8.124207 13.893475,7.235045 z M 9.0741616,21.464047 C 8.6074617,21.233031 8.3293097,20.951989 8.101387,20.481163 7.7967799,19.85193 7.7821957,19.552365 7.7821957,13.924988 V 8.0281739 L 5.7199137,10.066947 C 4.0947091,11.673621 3.5174373,12.147336 2.9961454,12.302083 1.2196934,12.829435 -0.37627082,11.235361 0.14371027,9.453032 0.30690256,8.893661 0.98948003,8.1387575 4.5652876,4.5629503 8.1410952,0.9871424 8.8959975,0.30456495 9.455368,0.14137326 c 1.34703,-0.39298566 1.525499,-0.26597669 6.213053,4.42157704 3.575807,3.5758072 4.258386,4.3307107 4.421577,4.8900817 0.519981,1.782329 -1.075983,3.376403 -2.852435,2.849051 C 16.716271,12.147336 16.139,11.673621 14.513795,10.066947 L 12.451513,8.0281739 v 5.8968141 c 0,5.636059 -0.01418,5.926101 -0.320643,6.559175 -0.232798,0.480897 -0.502109,0.750209 -0.983004,0.983007 -0.834128,0.403794 -1.2529157,0.403159 -2.0737044,-0.0029 z"
       id="path1" /></g></svg>
