<?xml version="1.0" encoding="UTF-8" standalone="no"?>
<!-- Created with Inkscape (http://www.inkscape.org/) -->

<svg
   width="79.375mm"
   height="38.939209mm"
   viewBox="0 0 79.375 38.939209"
   version="1.1"
   id="svg1"
   inkscape:version="1.3 (0e150ed6c4, 2023-07-21)"
   sodipodi:docname="trafikk.svg"
   xmlns:inkscape="http://www.inkscape.org/namespaces/inkscape"
   xmlns:sodipodi="http://sodipodi.sourceforge.net/DTD/sodipodi-0.dtd"
   xmlns="http://www.w3.org/2000/svg"
   xmlns:svg="http://www.w3.org/2000/svg">
  <sodipodi:namedview
     id="namedview1"
     pagecolor="#ffffff"
     bordercolor="#000000"
     borderopacity="0.25"
     inkscape:showpageshadow="2"
     inkscape:pageopacity="0.0"
     inkscape:pagecheckerboard="0"
     inkscape:deskcolor="#d1d1d1"
     inkscape:document-units="mm"
     inkscape:zoom="1.2249228"
     inkscape:cx="397.16787"
     inkscape:cy="262.46551"
     inkscape:window-width="2736"
     inkscape:window-height="1714"
     inkscape:window-x="-12"
     inkscape:window-y="-12"
     inkscape:window-maximized="1"
     inkscape:current-layer="layer1" />
  <defs
     id="defs1" />
  <g
     inkscape:label="Layer 1"
     inkscape:groupmode="layer"
     id="layer1">
    <path
       style="fill:#000000;stroke-width:0.84259"
       d="m 41.870347,38.916897 c -2.355284,-0.150491 -4.445527,-0.48547 -9.133538,-1.463591 -2.42475,-0.505908 -3.360149,-0.681241 -4.443345,-0.832886 -1.707865,-0.239111 -3.035932,-0.333858 -4.669628,-0.333138 -2.632696,8.54e-4 -4.693775,0.275185 -7.767913,1.032726 -0.651848,0.160701 -1.190811,0.285413 -1.197694,0.277277 -0.08035,-0.09508 -2.126778,-3.056445 -2.133536,-3.087497 -0.0089,-0.04051 1.258142,-0.403076 3.055864,-0.874418 3.280461,-0.860105 5.524608,-1.134888 8.536985,-1.04533 2.601933,0.07734 4.770428,0.390522 8.907261,1.286316 3.046508,0.659697 5.428675,1.019936 8.104994,1.225651 0.900766,0.0693 3.784975,0.06897 4.566772,-5.35e-4 2.779786,-0.246912 5.006374,-0.676086 8.043284,-1.550369 3.30205,-0.950601 5.79547,-1.404566 8.968975,-1.632913 0.949898,-0.0683 3.812262,-0.06796 4.710768,7.2e-4 2.58738,0.197612 4.976511,0.622601 6.781291,1.20625 l 0.424838,0.137433 0.758009,2.053666 c 0.41687,1.129515 0.757976,2.061819 0.757976,2.071796 0,0.01004 -0.03231,0.005 -0.07198,-0.01172 -2.064714,-0.849074 -5.287435,-1.473015 -8.814685,-1.706601 -3.125295,-0.20697 -5.308092,-0.07566 -8.578136,0.516388 -1.390956,0.251783 -2.703135,0.548595 -5.47189,1.237704 -4.08368,1.016371 -5.620674,1.297498 -7.940419,1.452358 -0.930429,0.0621 -2.721783,0.08353 -3.394236,0.04051 z M 5.0825674,24.135678 0,17.134862 l 5.0958287,-0.02056 5.0958273,-0.02056 3.160077,-4.093638 c 3.319995,-4.300808 3.252003,-4.2200036 3.94497,-4.6881542 0.357799,-0.2417221 0.616979,-0.34317 1.158795,-0.4535921 0.394911,-0.080468 0.553403,-0.08333 4.670811,-0.08333 h 4.262028 V 6.3350656 4.8950869 h 1.844339 1.84434 L 32.122909,2.4479609 33.168802,8.3660945e-4 34.413356,9.6656294e-6 C 35.097844,-4.4565565e-4 35.657906,0.01524283 35.657906,0.034979 c 0,0.01971943 -0.229485,0.61260467 -0.50996,1.3176011 l -0.509943,1.2818064 0.791154,1.120072 0.791188,1.1200703 4.902672,0.010379 4.902689,0.010379 V 6.335088 7.7748976 l 8.197557,1.273e-4 c 9.022376,1.506e-4 8.536354,-0.013057 9.269706,0.2522798 0.450918,0.1631623 0.783035,0.3815324 1.204391,0.7919242 0.415364,0.4045362 0.705698,0.7875184 0.864324,1.1401429 0.06529,0.1449162 0.708895,1.8135572 1.430479,3.7080952 l 1.311978,3.444618 2.879941,0.0017 2.879957,0.0017 2.65834,6.94177 c 1.462084,3.817969 2.655762,6.94534 2.652615,6.949676 -0.0033,0.0033 -0.301483,-0.137936 -0.662945,-0.315997 -2.620089,-1.291237 -5.980812,-2.257724 -9.297075,-2.67364 -3.051221,-0.382687 -5.892259,-0.375238 -8.907256,0.02327 -1.840351,0.243295 -3.039403,0.495597 -6.438745,1.354798 -3.353709,0.847685 -4.601959,1.109963 -6.438728,1.352907 -2.282918,0.301952 -5.130032,0.405521 -6.891305,0.250678 -1.808613,-0.159028 -2.99824,-0.358817 -8.050047,-1.352237 -3.269722,-0.642991 -5.118715,-0.940942 -6.966811,-1.122652 -0.920509,-0.09056 -3.190116,-0.103452 -3.970211,-0.0226 -1.931124,0.200024 -3.880748,0.528357 -6.027315,1.015049 -1.847615,0.418912 -4.376287,1.144597 -5.351092,1.535654 l -0.208331,0.08353 z M 24.714101,13.946349 v -3.167945 h -2.009379 c -1.840581,0 -2.035099,0.0067 -2.315512,0.07827 -0.712435,0.18221 -1.397699,0.524967 -1.818566,0.909618 -0.127222,0.116274 -0.405032,0.418305 -0.617342,0.671165 -0.364321,0.4339 -3.565864,4.615286 -3.565864,4.657206 0,0.01071 2.3235,0.01964 5.163332,0.01964 h 5.163331 z m 13.196574,0.01021 -0.01004,-3.157657 -5.33818,-0.01038 -5.338187,-0.01038 v 3.168095 3.168098 h 5.348728 5.348731 z m 13.093232,-0.01021 V 10.778404 H 45.675996 40.3481 v 3.167945 3.167936 h 5.327896 5.327911 z m 13.556757,3.013658 C 64.527352,16.875153 64.104689,15.765585 63.621463,14.494301 63.138237,13.223027 62.679651,12.075159 62.602414,11.943496 62.387157,11.57659 62.060833,11.27828 61.658225,11.080345 61.002043,10.75776 61.293231,10.77671 57.174197,10.788473 l -3.681205,0.01055 -0.01004,3.157656 -0.01004,3.157657 h 5.574673 5.574672 z"
       id="path2" />
  </g>
</svg>
