<?xml version="1.0" encoding="UTF-8" standalone="no"?>
<!-- Created with Inkscape (http://www.inkscape.org/) -->

<svg
   width="400.35999"
   height="120.79753"
   viewBox="0 0 105.92858 31.961013"
   version="1.1"
   id="svg1"
   xml:space="preserve"
   inkscape:version="1.3 (0e150ed6c4, 2023-07-21)"
   sodipodi:docname="varsel.svg"
   xmlns:inkscape="http://www.inkscape.org/namespaces/inkscape"
   xmlns:sodipodi="http://sodipodi.sourceforge.net/DTD/sodipodi-0.dtd"
   xmlns="http://www.w3.org/2000/svg"
   xmlns:svg="http://www.w3.org/2000/svg"><sodipodi:namedview
     id="namedview1"
     pagecolor="#ffffff"
     bordercolor="#000000"
     borderopacity="0.25"
     inkscape:showpageshadow="2"
     inkscape:pageopacity="0.0"
     inkscape:pagecheckerboard="0"
     inkscape:deskcolor="#d1d1d1"
     inkscape:document-units="mm"
     inkscape:zoom="3.464605"
     inkscape:cx="184.43661"
     inkscape:cy="95.104637"
     inkscape:window-width="2736"
     inkscape:window-height="1714"
     inkscape:window-x="-12"
     inkscape:window-y="-12"
     inkscape:window-maximized="1"
     inkscape:current-layer="layer1" /><defs
     id="defs1" /><g
     inkscape:label="Layer 1"
     inkscape:groupmode="layer"
     id="layer1"><path
       style="fill:#000000;stroke-width:0.503347"
       d="M 0.295987,28.558194 0,28.350876 V 15.980506 3.610137 L 0.295987,3.4028185 C 0.5569909,3.220003 1.6867913,3.1955001 9.8551081,3.1955001 c 8.1683179,0 9.2981179,0.024513 9.5591219,0.2073184 l 0.295987,0.2073185 v 12.370369 12.37037 l -0.295987,0.207318 c -0.261004,0.182816 -1.390804,0.207319 -9.5591219,0.207319 -8.1683168,0 -9.2981172,-0.02451 -9.5591211,-0.207319 z m 16.538971,-1.873808 c 0.213863,-0.557321 0.0069,-0.582418 -4.802914,-0.582418 -3.9504639,0 -4.5930559,0.02753 -4.6591409,0.199768 -0.04216,0.109871 -0.04216,0.289661 0,0.399532 0.06611,0.17229 0.716304,0.199763 4.7277879,0.199763 4.172548,0 4.659686,-0.0223 4.734267,-0.216645 z M 5.9324361,26.307787 c 0.299124,-0.299124 0.32689,-0.429723 0.32689,-1.537589 0,-1.09874 -0.02941,-1.240115 -0.318064,-1.528764 -0.616153,-0.616152 -2.4962943,-0.644969 -3.0938474,-0.04742 -0.6128558,0.612855 -0.6015607,2.502368 0.018664,3.122597 0.2886507,0.28865 0.4300232,0.31806 1.5287643,0.31806 1.1078671,0 1.2384671,-0.02779 1.5375911,-0.326888 z m -2.5474537,-0.65267 c -0.038093,-0.09927 -0.051197,-0.563728 -0.029113,-1.032122 l 0.040147,-0.851628 H 4.394845 5.3936741 l 0.03995,0.843987 c 0.02402,0.507595 -0.02228,0.918975 -0.11619,1.032122 -0.213235,0.256934 -1.8343317,0.263341 -1.9324536,0.0077 z m 9.4677246,-1.285568 c 1.104733,-1.108892 1.30414,-1.370537 1.186581,-1.556906 -0.07772,-0.123209 -0.213581,-0.248105 -0.301917,-0.277551 -0.08834,-0.02945 -0.668273,0.441979 -1.288749,1.047611 l -1.128139,1.101146 -0.308445,-0.289766 c -0.36729,-0.345055 -0.828424,-0.377475 -0.947705,-0.06663 -0.0998,0.260074 0.915926,1.374987 1.252657,1.374987 0.114306,0 0.805379,-0.599798 1.535717,-1.332888 z m 3.68534,-3.29613 c 0.297729,-0.07771 0.417356,-0.420516 0.226848,-0.650062 -0.12623,-0.152102 -0.964717,-0.178432 -4.763381,-0.149595 l -4.6101829,0.03498 -0.04266,0.300477 c -0.03038,0.213973 0.04629,0.334469 0.266354,0.418563 0.305401,0.116711 8.4903289,0.15855 8.9230269,0.0456 z M 5.9324361,20.447995 c 0.299124,-0.299123 0.32689,-0.429727 0.32689,-1.537593 0,-1.107866 -0.02776,-1.238464 -0.32689,-1.537588 -0.300558,-0.300559 -0.42742,-0.326889 -1.5749111,-0.326889 -1.1694196,0 -1.2683559,0.02164 -1.5708849,0.34367 -0.2923594,0.311205 -0.3228632,0.456989 -0.3228632,1.54307 0,1.149055 0.015684,1.212884 0.3736635,1.520807 0.3350738,0.288216 0.497306,0.321412 1.5708856,0.321412 1.0935541,0 1.2255261,-0.02829 1.5241101,-0.326889 z m -2.5452002,-0.6468 c -0.039336,-0.102502 -0.05345,-0.569602 -0.031369,-1.037997 l 0.040147,-0.851622 H 4.394843 5.3936721 v 0.998826 0.998831 l -0.9674611,0.03916 c -0.733512,0.0297 -0.9847545,-0.0059 -1.038978,-0.147204 z m 9.3988101,-1.224779 c 1.161524,-1.165489 1.371013,-1.436858 1.253288,-1.623494 -0.07774,-0.123249 -0.213627,-0.24818 -0.301963,-0.277626 -0.08834,-0.02945 -0.668273,0.441979 -1.288749,1.047611 l -1.128139,1.101151 -0.308445,-0.289772 c -0.363448,-0.34144 -0.659065,-0.368958 -0.896054,-0.0834 -0.1456082,0.175446 -0.07398,0.305144 0.478101,0.86565 0.357154,0.362606 0.682659,0.659284 0.723345,0.659284 0.04069,0 0.701563,-0.629732 1.468616,-1.399405 z m 3.918172,-3.471073 c 0.115104,-0.115106 0.209279,-0.257588 0.209279,-0.316636 0,-0.373126 -0.473369,-0.409029 -4.941544,-0.374802 -4.2841259,0.03282 -4.5799959,0.05039 -4.6231249,0.274521 -0.117423,0.610202 0.0029,0.626193 4.7104969,0.626193 3.854808,0 4.463018,-0.02738 4.644893,-0.209276 z M 5.9324361,14.588199 c 0.299124,-0.299124 0.32689,-0.429722 0.32689,-1.537588 0,-1.107866 -0.02776,-1.23847 -0.32689,-1.537593 -0.298584,-0.298586 -0.430556,-0.326889 -1.5241101,-0.326889 -1.0735796,0 -1.2358118,0.03322 -1.5708856,0.321412 -0.3579807,0.307923 -0.3736635,0.371752 -0.3736635,1.520807 0,1.086081 0.030503,1.231865 0.3228632,1.54307 0.302529,0.322026 0.4014653,0.34367 1.5708849,0.34367 1.1474911,0 1.2743531,-0.02632 1.5749111,-0.326889 z M 3.3872359,13.941404 c -0.039336,-0.102507 -0.05345,-0.569608 -0.031369,-1.037997 L 3.3960139,12.05178 4.357567,12.01272 c 0.9126901,-0.03705 0.9655391,-0.02315 1.0399911,0.273473 0.04314,0.171888 0.05992,0.638929 0.03728,1.037876 l -0.04116,0.725358 -0.9674601,0.03916 c -0.7335125,0.0297 -0.984755,-0.0059 -1.0389785,-0.147203 z m 9.4361401,-1.143549 c 1.362241,-1.362242 1.558572,-1.763998 0.907222,-1.856483 -0.246291,-0.03498 -0.549237,0.186012 -1.360108,0.992126 l -1.043239,1.037121 -0.311829,-0.292948 c -0.360705,-0.338863 -0.661442,-0.373347 -0.886894,-0.101696 -0.112926,0.13607 -0.1191,0.265294 -0.0214,0.447858 0.177631,0.331907 1.043276,1.092192 1.243545,1.092192 0.08499,0 0.747705,-0.593174 1.472699,-1.31817 z m 3.9615,-3.617895 C 16.894067,8.975934 16.891072,8.8558 16.773256,8.713841 16.641122,8.554628 15.871646,8.522584 12.180295,8.522584 c -2.4388289,0 -4.5290309,0.03639 -4.6448929,0.08084 -0.249841,0.09587 -0.2829,0.666879 -0.04419,0.763204 0.09156,0.03695 2.186991,0.0719 4.6565149,0.07769 4.405474,0.01032 4.492813,0.0053 4.637147,-0.264353 z M 5.5204091,8.999984 c 0.624032,-0.260739 0.738917,-0.551955 0.738917,-1.873054 0,-1.040035 -0.03044,-1.177253 -0.32689,-1.473704 C 5.6333121,5.354102 5.5027121,5.326333 4.394845,5.326333 c -1.098741,0 -1.2401135,0.0294 -1.5287642,0.318065 C 2.4793671,6.031114 2.3375169,6.70735 2.4382935,7.683782 2.5157545,8.434303 2.7711144,8.861312 3.2628398,9.062575 3.6967116,9.240151 5.0343571,9.203069 5.5204091,8.999985 Z M 3.3872359,8.081607 C 3.3478999,7.979101 3.3337859,7.512005 3.3558669,7.043611 l 0.040147,-0.851622 0.8779856,-0.03891 c 1.1050716,-0.04898 1.2131316,0.06217 1.1596236,1.192574 L 5.3936731,8.189635 4.426213,8.228795 C 3.6927005,8.258495 3.441458,8.222895 3.3872345,8.081591 Z M 12.808973,6.960901 C 13.742096,6.044125 14.116118,5.587207 14.088795,5.397431 14.005565,4.819377 13.569141,5.014122 12.447711,6.129725 L 11.346034,7.225681 10.968169,6.875307 C 10.539021,6.477376 10.355572,6.44261 10.128528,6.716184 c -0.112926,0.136065 -0.1191,0.265294 -0.0214,0.447853 0.174417,0.325902 1.041756,1.092197 1.236214,1.092197 0.08096,0 0.740491,-0.582901 1.465627,-1.295333 z"
       id="path1" /><path
       style="fill:#000000;stroke-width:0.503347"
       d="m 49.020225,27.59785 c -1.407005,-0.08992 -2.655672,-0.290013 -5.456198,-0.874323 -1.448498,-0.30222 -2.007287,-0.406961 -2.654367,-0.497553 -1.020245,-0.14284 -1.813606,-0.199436 -2.789544,-0.199003 -1.572721,5.03e-4 -2.803969,0.164388 -4.640399,0.616931 -0.389401,0.09596 -0.711367,0.170494 -0.715479,0.165632 -0.048,-0.05676 -1.270495,-1.82586 -1.274532,-1.844404 -0.0053,-0.02421 0.751589,-0.240791 1.825513,-0.522358 1.959683,-0.513811 3.300292,-0.677962 5.099827,-0.624462 1.554344,0.04621 2.84976,0.233286 5.321023,0.768415 1.819923,0.39409 3.242979,0.609291 4.841765,0.732188 0.538102,0.04137 2.261073,0.04117 2.728098,-3.22e-4 1.660592,-0.147501 2.99071,-0.403886 4.804898,-0.926158 1.97258,-0.567876 3.462104,-0.839064 5.357889,-0.975471 0.567458,-0.04082 2.277372,-0.04057 2.814121,4.23e-4 1.545652,0.118055 2.972876,0.371933 4.051014,0.720596 l 0.253793,0.08208 0.452811,1.226822 c 0.24904,0.674746 0.452805,1.231689 0.452805,1.237644 0,0.0059 -0.01933,0.003 -0.04299,-0.0068 -1.23342,-0.507217 -3.158606,-0.879951 -5.265721,-1.019488 -1.866988,-0.123637 -3.170948,-0.04515 -5.124407,0.308476 -0.830934,0.150415 -1.614806,0.327724 -3.268804,0.739381 -2.439505,0.607162 -3.357679,0.775103 -4.743453,0.867613 -0.555811,0.0371 -1.625936,0.04988 -2.027642,0.02421 z M 27.043926,18.76784 24.0077,14.585689 l 3.044148,-0.01228 3.044147,-0.01228 1.887768,-2.445459 c 1.9833,-2.569218 1.942683,-2.520947 2.356648,-2.800611 0.213742,-0.1444 0.368571,-0.205003 0.692241,-0.270967 0.235912,-0.04807 0.330592,-0.04978 2.790251,-0.04978 h 2.546052 V 8.134103 7.273888 h 1.101772 1.101772 l 0.624796,-1.461865 0.624796,-1.461864 0.743468,-4.94e-4 c 0.408908,-2.72e-4 0.743471,0.0091 0.743471,0.02089 0,0.01178 -0.137087,0.365958 -0.304637,0.787109 l -0.304634,0.765726 0.472627,0.669109 0.472633,0.669108 2.928763,0.0062 2.928768,0.0062 V 8.134116 8.99423 l 4.897065,7.6e-5 c 5.389786,9e-5 5.099446,-0.0078 5.537538,0.150707 0.269371,0.09747 0.467771,0.22792 0.719484,0.47308 0.24813,0.241662 0.421563,0.470448 0.516323,0.681099 0.03896,0.08657 0.423486,1.083383 0.854547,2.215143 l 0.783746,2.057747 1.720424,10e-4 1.720424,0.001 1.588039,4.146877 c 0.873422,2.280785 1.586503,4.149007 1.584621,4.151604 -0.002,0.0025 -0.180093,-0.08235 -0.396029,-0.18877 -1.565186,-0.771369 -3.57282,-1.348723 -5.553887,-1.597185 -1.822739,-0.228605 -3.519923,-0.224155 -5.321024,0.01394 -1.099385,0.145341 -1.815682,0.296063 -3.846374,0.809336 -2.003441,0.506387 -2.749124,0.663069 -3.846374,0.808199 -1.363768,0.180374 -3.064576,0.242245 -4.116727,0.14975 -1.080429,-0.09498 -1.791089,-0.214355 -4.808943,-0.807806 -1.953268,-0.384104 -3.05782,-0.562097 -4.161836,-0.670649 -0.549894,-0.05407 -1.905713,-0.06181 -2.371726,-0.01354 -1.153616,0.11949 -2.318283,0.315629 -3.6006,0.606372 -1.103729,0.250244 -2.614308,0.683756 -3.196637,0.917374 l -0.124453,0.04993 z m 11.727493,-6.086906 v -1.892468 h -1.200364 c -1.099527,0 -1.215728,0.004 -1.383241,0.04676 -0.425595,0.108849 -0.834958,0.313605 -1.086376,0.543388 -0.076,0.06946 -0.241958,0.249887 -0.368788,0.400941 -0.217638,0.259203 -2.130177,2.757081 -2.130177,2.782123 0,0.0064 1.388013,0.01173 3.084473,0.01173 h 3.084473 z m 7.883378,0.0061 -0.0063,-1.886322 -3.188928,-0.0062 -3.188928,-0.0062 v 1.892558 1.892559 h 3.195225 3.195224 z m 7.821631,-0.0061 v -1.892468 h -3.182787 -3.182782 v 1.892468 1.892463 h 3.182782 3.182787 z m 8.098541,1.8003 c -0.01988,-0.05069 -0.272386,-0.713524 -0.561055,-1.472964 -0.288675,-0.759434 -0.562616,-1.445148 -0.608763,-1.523801 -0.12859,-0.219182 -0.323526,-0.397387 -0.56404,-0.515629 -0.391986,-0.192706 -0.21804,-0.181386 -2.678665,-0.174359 l -2.199082,0.0063 -0.0063,1.886322 -0.0063,1.886322 h 3.330202 3.330202 z"
       id="path2" /><path
       style="fill:#000000;stroke-width:0.503347"
       d="m 74.631942,31.815367 c -0.183118,-0.0936 -0.410882,-0.332732 -0.506146,-0.531398 -0.234746,-0.48958 -0.280037,-0.401001 3.861963,-7.552757 2.891365,-4.992364 3.572045,-6.079769 3.871703,-6.185155 0.848521,-0.298409 0.820873,-0.336261 4.854527,6.647302 2.071317,3.586124 3.76603,6.623374 3.76603,6.749437 0,0.126068 -0.144607,0.397357 -0.321352,0.602873 l -0.321346,0.373665 -7.436218,0.03312 c -5.825861,0.02592 -7.508322,-0.0035 -7.769161,-0.137072 z m 12.918181,-2.023146 c 0,-0.142135 -5.207016,-9.062803 -5.310484,-9.097932 -0.09188,-0.03121 -5.343689,8.916047 -5.343689,9.10376 0,0.03136 2.397188,0.05704 5.327089,0.05704 2.929896,0 5.327084,-0.02829 5.327084,-0.06287 z m -6.003214,-0.859128 c -0.337555,-0.337554 -0.399693,-0.485251 -0.327901,-0.779367 0.292948,-1.200084 1.98066,-1.112119 1.98066,0.103237 0,0.476956 -0.34664,0.875446 -0.873398,1.004026 -0.294115,0.0718 -0.441807,0.0097 -0.779361,-0.327896 z m -0.0067,-2.793921 c -0.272361,-0.220541 -0.317984,-0.388503 -0.352715,-1.298474 -0.0451,-1.181676 0.118669,-1.639787 0.65345,-1.827858 0.977937,-0.343922 1.501931,0.348432 1.424481,1.88218 -0.04279,0.846734 -0.09618,1.030909 -0.361262,1.245561 -0.397946,0.322238 -0.964996,0.321649 -1.363954,-0.0015 z m 9.290728,0.776352 c -0.464911,-0.365702 -0.490929,-1.149876 -0.05126,-1.544882 0.164811,-0.148064 1.15277,-0.533074 2.195473,-0.855574 l 1.89582,-0.586363 0.002,-10.687465 C 94.87397,7.363132 94.82998,2.553835 94.77504,2.5539055 94.7201,2.553981 93.236848,2.9646414 91.47891,3.4664932 l -3.196252,0.9124468 -0.06659,7.755536 -0.06659,7.755536 -0.37366,0.321336 c -0.450279,0.387225 -0.886328,0.409468 -1.309592,0.06681 L 86.151846,20.023625 86.085256,12.256069 86.018666,4.488513 83.08877,3.9294513 C 81.477326,3.6219719 79.9641,3.3337607 79.726047,3.288993 L 79.293224,3.207592 v 7.003888 7.003888 l -0.326893,0.326889 c -0.432471,0.43247 -1.044581,0.43247 -1.477051,0 L 77.162306,17.215368 V 9.448084 c 0,-8.4313891 -0.01913,-8.20667 0.723077,-8.4888612 0.20373,-0.07746 1.686685,0.1506819 4.73377,0.7282521 L 87.05625,2.5285219 91.434314,1.264261 95.812373,0 l 4.748097,0.4577989 4.74811,0.4578039 0.31,0.3603912 0.31,0.3603912 V 13.754135 25.87188 l -0.3269,0.326888 c -0.41572,0.415729 -0.39473,0.415996 -5.40653,-0.06803 l -4.068709,-0.392943 -2.298542,0.726873 c -1.264201,0.399783 -2.376738,0.726878 -2.472308,0.726878 -0.09557,0 -0.331671,-0.124211 -0.524669,-0.27602 z M 103.69866,2.946687 C 103.61686,2.875091 97.755151,2.2818717 97.172169,2.2861854 97.040383,2.2871954 97.005698,4.517692 97.005698,12.99157 v 10.704151 l 1.698014,0.161352 c 0.9339,0.08874 2.447138,0.231057 3.362728,0.316258 l 1.66471,0.154905 0.0341,-10.646714 c 0.0188,-5.855694 -0.0112,-10.6863677 -0.0666,-10.734835 z"
       id="path3" /></g></svg>
