<svg width="960" height="540" xmlns="http://www.w3.org/2000/svg" xmlns:xlink="http://www.w3.org/1999/xlink" overflow="hidden"><g><rect x="0" y="0" width="960" height="540" fill="#EFEFEF"/><rect x="10.5001" y="10.5001" width="940" height="520" stroke="#EFEFEF" stroke-width="1.00031" stroke-miterlimit="8" fill="none"/><path d="M90 179.5 499.938 179.5 499.938 222.18 90 222.18Z" fill="#4F81BD" fill-rule="evenodd"/><path d="M499.938 179.5 885 179.5 885 222.18 499.938 222.18Z" fill="#4F81BD" fill-rule="evenodd"/><path d="M90 222.18 499.938 222.18 499.938 251.178 90 251.178Z" fill="#4F81BD" fill-rule="evenodd"/><path d="M499.938 222.18 885 222.18 885 251.178 499.938 251.178Z" fill="#D0D8E8" fill-rule="evenodd"/><path d="M90 251.178 499.938 251.178 499.938 280.176 90 280.176Z" fill="#4F81BD" fill-rule="evenodd"/><path d="M499.938 251.178 885 251.178 885 280.176 499.938 280.176Z" fill="#E9EDF4" fill-rule="evenodd"/><path d="M90 280.176 499.938 280.176 499.938 309.173 90 309.173Z" fill="#4F81BD" fill-rule="evenodd"/><path d="M499.938 280.176 885 280.176 885 309.173 499.938 309.173Z" fill="#D0D8E8" fill-rule="evenodd"/><path d="M499.938 178.833 499.938 309.84" stroke="#000000" stroke-width="1.33333" stroke-linejoin="round" stroke-miterlimit="10" fill="none" fill-rule="evenodd"/><path d="M89.3333 222.18 885.667 222.18" stroke="#FFFFFF" stroke-width="4.00031" stroke-linejoin="round" stroke-miterlimit="10" fill="none" fill-rule="evenodd"/><path d="M89.3333 251.178 885.667 251.178" stroke="#000000" stroke-width="1.33333" stroke-linejoin="round" stroke-miterlimit="10" fill="none" fill-rule="evenodd"/><path d="M89.3333 280.176 885.667 280.176" stroke="#000000" stroke-width="1.33333" stroke-linejoin="round" stroke-miterlimit="10" fill="none" fill-rule="evenodd"/><path d="M90 178.833 90 309.84" stroke="#FFFFFF" stroke-width="1.33344" stroke-linejoin="round" stroke-miterlimit="10" fill="none" fill-rule="evenodd"/><path d="M885 178.833 885 309.84" stroke="#FFFFFF" stroke-width="1.33344" stroke-linejoin="round" stroke-miterlimit="10" fill="none" fill-rule="evenodd"/><path d="M89.3333 179.5 885.667 179.5" stroke="#FFFFFF" stroke-width="1.33344" stroke-linejoin="round" stroke-miterlimit="10" fill="none" fill-rule="evenodd"/><path d="M89.3333 309.173 885.667 309.173" stroke="#FFFFFF" stroke-width="1.33344" stroke-linejoin="round" stroke-miterlimit="10" fill="none" fill-rule="evenodd"/><g><text fill="#FFFFFF" font-family="Calibri,Calibri_MSFontService,sans-serif" font-weight="700" font-size="32" transform="translate(507.138 212)">Status</text></g><g><text fill="#FFFFFF" font-family="Calibri,Calibri_MSFontService,sans-serif" font-weight="700" font-size="32" transform="translate(97.2 212)">Hva</text></g><g><text fill="#191919" font-family="Calibri,Calibri_MSFontService,sans-serif" font-weight="400" font-size="21" transform="translate(511.971 245)">OK</text></g><g><text fill="#FFFFFF" font-family="Calibri,Calibri_MSFontService,sans-serif" font-weight="700" font-size="21" transform="translate(97.2 245)">GPS</text></g><g><text fill="#191919" font-family="Calibri,Calibri_MSFontService,sans-serif" font-weight="400" font-size="21" transform="translate(511.971 274)">OK</text></g><g><text fill="#FFFFFF" font-family="Calibri,Calibri_MSFontService,sans-serif" font-weight="700" font-size="21" transform="translate(97.2 274)">GYRO</text></g><g><text fill="#191919" font-family="Calibri,Calibri_MSFontService,sans-serif" font-weight="400" font-size="21" transform="translate(511.971 303)">OK</text></g><g><text fill="#FFFFFF" font-family="Calibri,Calibri_MSFontService,sans-serif" font-weight="700" font-size="21" transform="translate(97.2 303)">3CM Radar</text></g><text fill="#191919" font-family="Cambria,Cambria_MSFontService,sans-serif" font-style="italic" font-weight="400" font-size="27" transform="translate(326.517 109)">Status på navigasjonsutstyr</text></g></svg>