<svg width="960" height="540" xmlns="http://www.w3.org/2000/svg" xmlns:xlink="http://www.w3.org/1999/xlink" overflow="hidden"><g><rect x="0" y="0" width="960" height="540" fill="#EFEFEF"/><rect x="10.5001" y="10.5001" width="940" height="520" stroke="#EFEFEF" stroke-width="1.00031" stroke-miterlimit="8" fill="none"/><text fill="#191919" font-family="Cambria,Cambria_MSFontService,sans-serif" font-style="italic" font-weight="400" font-size="27" transform="translate(320.837 70)">Sjøvakter rotasjon</text><text fill="#191919" font-family="Cambria,Cambria_MSFontService,sans-serif" font-style="italic" font-weight="400" font-size="27" transform="translate(528.65 70)">–</text><text fill="#191919" font-family="Cambria,Cambria_MSFontService,sans-serif" font-style="italic" font-weight="400" font-size="27" transform="translate(547.817 70)">Kvarven</text><path d="M119.668 105.183 332.824 105.183 332.824 168.782 119.668 168.782Z" fill="#C0504D" fill-rule="evenodd"/><path d="M332.824 105.183 597.923 105.183 597.923 168.782 332.824 168.782Z" fill="#C0504D" fill-rule="evenodd"/><path d="M597.923 105.183 858.237 105.183 858.237 168.782 597.923 168.782Z" fill="#C0504D" fill-rule="evenodd"/><path d="M119.668 168.782 332.824 168.782 332.824 240.372 119.668 240.372Z" fill="#E8D0D0" fill-rule="evenodd"/><path d="M332.824 168.782 597.923 168.782 597.923 240.372 332.824 240.372Z" fill="#E8D0D0" fill-rule="evenodd"/><path d="M597.923 168.782 858.237 168.782 858.237 240.372 597.923 240.372Z" fill="#E8D0D0" fill-rule="evenodd"/><path d="M119.668 240.372 332.824 240.372 332.824 311.962 119.668 311.962Z" fill="#F4E9E9" fill-rule="evenodd"/><path d="M332.824 240.372 597.923 240.372 597.923 311.962 332.824 311.962Z" fill="#F4E9E9" fill-rule="evenodd"/><path d="M597.923 240.372 858.237 240.372 858.237 311.962 597.923 311.962Z" fill="#F4E9E9" fill-rule="evenodd"/><path d="M119.668 311.962 332.824 311.962 332.824 396.568 119.668 396.568Z" fill="#E8D0D0" fill-rule="evenodd"/><path d="M332.824 311.962 597.923 311.962 597.923 396.568 332.824 396.568Z" fill="#E8D0D0" fill-rule="evenodd"/><path d="M597.923 311.962 858.237 311.962 858.237 396.568 597.923 396.568Z" fill="#E8D0D0" fill-rule="evenodd"/><path d="M119.668 396.568 332.824 396.568 332.824 468.158 119.668 468.158Z" fill="#F4E9E9" fill-rule="evenodd"/><path d="M332.824 396.568 597.923 396.568 597.923 468.158 332.824 468.158Z" fill="#F4E9E9" fill-rule="evenodd"/><path d="M597.923 396.568 858.237 396.568 858.237 468.158 597.923 468.158Z" fill="#F4E9E9" fill-rule="evenodd"/><path d="M119.668 468.158 332.824 468.158 332.824 494.191 119.668 494.191Z" fill="#E8D0D0" fill-rule="evenodd"/><path d="M332.824 468.158 597.923 468.158 597.923 494.191 332.824 494.191Z" fill="#E8D0D0" fill-rule="evenodd"/><path d="M597.923 468.158 858.237 468.158 858.237 494.191 597.923 494.191Z" fill="#E8D0D0" fill-rule="evenodd"/><path d="M332.824 104.516 332.824 494.858" stroke="#000000" stroke-width="1.33333" stroke-linejoin="round" stroke-miterlimit="10" fill="none" fill-rule="evenodd"/><path d="M597.923 104.516 597.923 494.858" stroke="#000000" stroke-width="1.33333" stroke-linejoin="round" stroke-miterlimit="10" fill="none" fill-rule="evenodd"/><path d="M119.001 168.782 858.904 168.782" stroke="#FFFFFF" stroke-width="4.00031" stroke-linejoin="round" stroke-miterlimit="10" fill="none" fill-rule="evenodd"/><path d="M119.001 240.372 858.904 240.372" stroke="#000000" stroke-width="1.33333" stroke-linejoin="round" stroke-miterlimit="10" fill="none" fill-rule="evenodd"/><path d="M119.001 311.962 858.904 311.962" stroke="#000000" stroke-width="1.33333" stroke-linejoin="round" stroke-miterlimit="10" fill="none" fill-rule="evenodd"/><path d="M119.001 396.568 858.904 396.568" stroke="#000000" stroke-width="1.33333" stroke-linejoin="round" stroke-miterlimit="10" fill="none" fill-rule="evenodd"/><path d="M119.001 468.158 858.904 468.158" stroke="#000000" stroke-width="1.33333" stroke-linejoin="round" stroke-miterlimit="10" fill="none" fill-rule="evenodd"/><path d="M119.668 104.516 119.668 494.858" stroke="#FFFFFF" stroke-width="1.33344" stroke-linejoin="round" stroke-miterlimit="10" fill="none" fill-rule="evenodd"/><path d="M858.237 104.516 858.237 494.858" stroke="#FFFFFF" stroke-width="1.33344" stroke-linejoin="round" stroke-miterlimit="10" fill="none" fill-rule="evenodd"/><path d="M119.001 105.183 858.904 105.183" stroke="#FFFFFF" stroke-width="1.33344" stroke-linejoin="round" stroke-miterlimit="10" fill="none" fill-rule="evenodd"/><path d="M119.001 494.191 858.904 494.191" stroke="#FFFFFF" stroke-width="1.33344" stroke-linejoin="round" stroke-miterlimit="10" fill="none" fill-rule="evenodd"/><g><text fill="#FFFFFF" font-family="Calibri,Calibri_MSFontService,sans-serif" font-weight="700" font-size="24" transform="translate(607.523 132)">Ror</text></g><g><text fill="#FFFFFF" font-family="Calibri,Calibri_MSFontService,sans-serif" font-weight="700" font-size="24" transform="translate(342.424 132)">Assistent</text></g><g><text fill="#FFFFFF" font-family="Calibri,Calibri_MSFontService,sans-serif" font-weight="700" font-size="24" transform="translate(129.268 132)">Navigatør</text></g><g><text font-family="Calibri,Calibri_MSFontService,sans-serif" font-weight="400" font-size="19" transform="translate(607.523 191)">Rokstad</text></g><g><text font-family="Calibri,Calibri_MSFontService,sans-serif" font-weight="400" font-size="19" transform="translate(342.424 191)">Rung</text></g><g><text font-family="Calibri,Calibri_MSFontService,sans-serif" font-weight="400" font-size="19" transform="translate(129.268 191)">Wigg</text></g><g><text font-family="Calibri,Calibri_MSFontService,sans-serif" font-weight="400" font-size="19" transform="translate(607.523 262)">Reinboth</text></g><g><text font-family="Calibri,Calibri_MSFontService,sans-serif" font-weight="400" font-size="19" transform="translate(342.424 262)">Rokstad</text></g><g><text font-family="Calibri,Calibri_MSFontService,sans-serif" font-weight="400" font-size="19" transform="translate(129.268 262)">Rung</text></g><g><text font-family="Calibri,Calibri_MSFontService,sans-serif" font-weight="400" font-size="19" transform="translate(607.523 334)">Wigg</text></g><g><text font-family="Calibri,Calibri_MSFontService,sans-serif" font-weight="400" font-size="19" transform="translate(342.424 334)">Reinboth</text></g><g><text font-family="Calibri,Calibri_MSFontService,sans-serif" font-weight="400" font-size="19" transform="translate(129.268 334)">Rokstad</text></g><g><text font-family="Calibri,Calibri_MSFontService,sans-serif" font-weight="400" font-size="19" transform="translate(607.523 418)">Rung</text></g><g><text font-family="Calibri,Calibri_MSFontService,sans-serif" font-weight="400" font-size="19" transform="translate(342.424 418)">Wigg</text></g><g><text font-family="Calibri,Calibri_MSFontService,sans-serif" font-weight="400" font-size="19" transform="translate(129.268 418)">Reinboth</text></g></g></svg>